M48
;Layer_Color=9474304
;FILE_FORMAT=4:4
METRIC,LZ
;TYPE=PLATED
T1F00S00C0.2000
T2F00S00C0.7112
T3F00S00C0.7620
T4F00S00C1.0000
T5F00S00C3.0000
;TYPE=NON_PLATED
T6F00S00C0.9000
%
T01
X0017174Y0029184
X0034474Y0026184
X0033174Y0022384
X0031474Y0033984
X0032174Y0037284
X0025749Y0037009
Y0035909
X0024649
Y0037009
X0023549
Y0035909
Y0038109
X0024649
X0025749
X0026674Y0044884
X0028674
X0020874Y0043584
X0020675Y0040775
X0017774Y0040584
X0015374Y0040684
X0015873Y0035543
X0017873
X0020373Y0034443
X0017174Y0031384
X0013474Y0034684
X0017674Y0046984
X0019074Y0049784
T02
X0039974Y0010084
X0028474Y0005084
X0022174Y0012384
X00195Y00177
X0018374Y0021884
X0018874Y0026984
X0023074Y0024384
X0028474Y0020784
X0027874Y0029484
X0010774Y0030184
X0012374Y0024384
X0012974Y0005034
X00135Y0036525
X0014174Y0043484
X00139Y0049
Y0051
X0021174Y0053084
X0027474Y0032084
X0032674Y0032184
T03
X00872Y0004
X01006Y00039
X00664
X0053Y0004
X00529Y00595
X00688
X00871
X0103
T04
X0009474Y0034524
Y0036984
Y0039524
Y0041984
Y0044524
Y0046984
Y0049524
Y0052064
X0035574Y0051964
Y0049424
Y0046884
Y0044424
Y0041884
Y0039424
Y0036884
Y0034424
T05
X0114Y0005
X0005
Y0058
X0114Y0058
T06
X0018474Y0005184
X0022874
M30
