G04*
G04 #@! TF.GenerationSoftware,Altium Limited,Altium Designer,20.2.3 (150)*
G04*
G04 Layer_Color=8388736*
%FSLAX44Y44*%
%MOMM*%
G71*
G04*
G04 #@! TF.SameCoordinates,88EA2407-11FA-4F87-BFA0-285E861C9762*
G04*
G04*
G04 #@! TF.FilePolarity,Negative*
G04*
G01*
G75*
%ADD35R,1.3000X1.3000*%
G04:AMPARAMS|DCode=36|XSize=1.1mm|YSize=1.5mm|CornerRadius=0.175mm|HoleSize=0mm|Usage=FLASHONLY|Rotation=0.000|XOffset=0mm|YOffset=0mm|HoleType=Round|Shape=RoundedRectangle|*
%AMROUNDEDRECTD36*
21,1,1.1000,1.1500,0,0,0.0*
21,1,0.7500,1.5000,0,0,0.0*
1,1,0.3500,0.3750,-0.5750*
1,1,0.3500,-0.3750,-0.5750*
1,1,0.3500,-0.3750,0.5750*
1,1,0.3500,0.3750,0.5750*
%
%ADD36ROUNDEDRECTD36*%
G04:AMPARAMS|DCode=37|XSize=0.8mm|YSize=1.6mm|CornerRadius=0.1375mm|HoleSize=0mm|Usage=FLASHONLY|Rotation=270.000|XOffset=0mm|YOffset=0mm|HoleType=Round|Shape=RoundedRectangle|*
%AMROUNDEDRECTD37*
21,1,0.8000,1.3250,0,0,270.0*
21,1,0.5250,1.6000,0,0,270.0*
1,1,0.2750,-0.6625,-0.2625*
1,1,0.2750,-0.6625,0.2625*
1,1,0.2750,0.6625,0.2625*
1,1,0.2750,0.6625,-0.2625*
%
%ADD37ROUNDEDRECTD37*%
%ADD38R,3.1000X2.6000*%
%ADD39R,0.6000X3.1000*%
G04:AMPARAMS|DCode=40|XSize=0.7mm|YSize=1.1mm|CornerRadius=0.155mm|HoleSize=0mm|Usage=FLASHONLY|Rotation=180.000|XOffset=0mm|YOffset=0mm|HoleType=Round|Shape=RoundedRectangle|*
%AMROUNDEDRECTD40*
21,1,0.7000,0.7900,0,0,180.0*
21,1,0.3900,1.1000,0,0,180.0*
1,1,0.3100,-0.1950,0.3950*
1,1,0.3100,0.1950,0.3950*
1,1,0.3100,0.1950,-0.3950*
1,1,0.3100,-0.1950,-0.3950*
%
%ADD40ROUNDEDRECTD40*%
%ADD41R,3.8000X3.8000*%
%ADD42R,0.7000X0.4000*%
%ADD43R,0.4000X0.7000*%
%ADD44R,1.7500X0.9000*%
%ADD45R,0.6000X0.5400*%
G04:AMPARAMS|DCode=46|XSize=0.7mm|YSize=1.1mm|CornerRadius=0.155mm|HoleSize=0mm|Usage=FLASHONLY|Rotation=90.000|XOffset=0mm|YOffset=0mm|HoleType=Round|Shape=RoundedRectangle|*
%AMROUNDEDRECTD46*
21,1,0.7000,0.7900,0,0,90.0*
21,1,0.3900,1.1000,0,0,90.0*
1,1,0.3100,0.3950,0.1950*
1,1,0.3100,0.3950,-0.1950*
1,1,0.3100,-0.3950,-0.1950*
1,1,0.3100,-0.3950,0.1950*
%
%ADD46ROUNDEDRECTD46*%
%ADD47R,0.8000X0.5000*%
%ADD48R,0.7000X1.1500*%
G04:AMPARAMS|DCode=49|XSize=0.8mm|YSize=1.6mm|CornerRadius=0.1375mm|HoleSize=0mm|Usage=FLASHONLY|Rotation=0.000|XOffset=0mm|YOffset=0mm|HoleType=Round|Shape=RoundedRectangle|*
%AMROUNDEDRECTD49*
21,1,0.8000,1.3250,0,0,0.0*
21,1,0.5250,1.6000,0,0,0.0*
1,1,0.2750,0.2625,-0.6625*
1,1,0.2750,-0.2625,-0.6625*
1,1,0.2750,-0.2625,0.6625*
1,1,0.2750,0.2625,0.6625*
%
%ADD49ROUNDEDRECTD49*%
%ADD50O,1.5500X0.7000*%
%ADD51R,0.5400X0.6000*%
%ADD52R,1.1000X1.0000*%
%ADD53O,0.9000X0.3500*%
%ADD54O,0.3500X0.9000*%
%ADD55C,0.9000*%
%ADD56C,3.1000*%
%ADD57C,1.1000*%
%ADD58C,0.8620*%
%ADD59C,0.8112*%
%ADD60C,0.3000*%
D35*
X927500Y131500D02*
D03*
Y163000D02*
D03*
D36*
X963260Y186840D02*
D03*
X953760Y164840D02*
D03*
X972760Y164840D02*
D03*
D37*
X1013260Y145590D02*
D03*
Y126840D02*
D03*
X919000Y225750D02*
D03*
Y244500D02*
D03*
X956260Y447340D02*
D03*
Y428590D02*
D03*
X1088260Y208090D02*
D03*
Y226840D02*
D03*
D38*
X940260Y76840D02*
D03*
Y21840D02*
D03*
X1030260D02*
D03*
Y76840D02*
D03*
D39*
X969260D02*
D03*
X977260D02*
D03*
X985260D02*
D03*
X993260D02*
D03*
X1001260D02*
D03*
D40*
X939750Y113000D02*
D03*
X923750D02*
D03*
X883260Y320840D02*
D03*
X899260D02*
D03*
X964260Y287840D02*
D03*
X980260D02*
D03*
X944260Y531840D02*
D03*
X960260D02*
D03*
D41*
X945510Y370090D02*
D03*
D42*
X931000Y285000D02*
D03*
Y293000D02*
D03*
X978260Y306840D02*
D03*
Y314840D02*
D03*
X961000Y315000D02*
D03*
X944260Y306840D02*
D03*
Y314840D02*
D03*
D43*
X1004260Y380840D02*
D03*
X996260D02*
D03*
D44*
X778260Y138840D02*
D03*
X778522Y170832D02*
D03*
Y193832D02*
D03*
Y212832D02*
D03*
X836510Y213090D02*
D03*
X836260Y193840D02*
D03*
Y170840D02*
D03*
X836510Y138840D02*
D03*
D45*
X1023660Y445840D02*
D03*
X1030260D02*
D03*
X1029560Y423840D02*
D03*
X1022960D02*
D03*
X995000Y287000D02*
D03*
X1005000D02*
D03*
D46*
X895260Y244840D02*
D03*
Y228840D02*
D03*
X1045260Y218840D02*
D03*
Y234840D02*
D03*
D47*
X961000Y307000D02*
D03*
D48*
X1078760Y165590D02*
D03*
X1088260D02*
D03*
X1097760D02*
D03*
Y138090D02*
D03*
X1078760D02*
D03*
D49*
X1063760Y314840D02*
D03*
X1045010D02*
D03*
D50*
X924760Y473540D02*
D03*
Y486240D02*
D03*
Y498940D02*
D03*
Y511640D02*
D03*
X979260Y473540D02*
D03*
Y486240D02*
D03*
Y498940D02*
D03*
Y511640D02*
D03*
D51*
X951000Y292000D02*
D03*
Y282000D02*
D03*
D52*
X1041750Y455500D02*
D03*
X1059750D02*
D03*
X1042000Y471500D02*
D03*
X1059750D02*
D03*
D53*
X969760Y352590D02*
D03*
Y357590D02*
D03*
Y362590D02*
D03*
Y367590D02*
D03*
Y372590D02*
D03*
Y377590D02*
D03*
Y382590D02*
D03*
Y387590D02*
D03*
X921260D02*
D03*
Y382590D02*
D03*
Y377590D02*
D03*
Y372590D02*
D03*
Y367590D02*
D03*
Y362590D02*
D03*
Y357590D02*
D03*
Y352590D02*
D03*
D54*
X963010Y394340D02*
D03*
X958010D02*
D03*
X953010D02*
D03*
X948010D02*
D03*
X943010D02*
D03*
X938010D02*
D03*
X933010D02*
D03*
X928010D02*
D03*
Y345840D02*
D03*
X933010D02*
D03*
X938010D02*
D03*
X943010D02*
D03*
X948010D02*
D03*
X953010D02*
D03*
X958010D02*
D03*
X963010D02*
D03*
D55*
X963260Y51840D02*
D03*
X1007260D02*
D03*
D56*
X52000Y50000D02*
D03*
Y580000D02*
D03*
X1142000Y580000D02*
D03*
Y50000D02*
D03*
D57*
X1097260Y469840D02*
D03*
Y520640D02*
D03*
Y495240D02*
D03*
Y419840D02*
D03*
Y445240D02*
D03*
Y369840D02*
D03*
Y395240D02*
D03*
Y345240D02*
D03*
X836260Y468840D02*
D03*
Y519640D02*
D03*
Y494240D02*
D03*
Y418840D02*
D03*
Y444240D02*
D03*
Y368840D02*
D03*
Y394240D02*
D03*
Y344240D02*
D03*
D58*
X504000Y595000D02*
D03*
X663000D02*
D03*
X662000Y40000D02*
D03*
X528000Y39000D02*
D03*
X186000D02*
D03*
X320000Y40000D02*
D03*
X321000Y595000D02*
D03*
X162000D02*
D03*
D59*
X997000Y177000D02*
D03*
X1008260Y218840D02*
D03*
X1053000Y510000D02*
D03*
X1057000Y365250D02*
D03*
X907260Y50840D02*
D03*
X1062260Y50340D02*
D03*
X917260Y320840D02*
D03*
X913260Y294840D02*
D03*
X922260Y534840D02*
D03*
X792260Y100840D02*
D03*
X970260Y123840D02*
D03*
X907260Y207840D02*
D03*
X1068260Y243840D02*
D03*
X980260Y530840D02*
D03*
X961260Y243840D02*
D03*
X1003260Y269840D02*
D03*
X865260Y321840D02*
D03*
X1084260Y301840D02*
D03*
X1050260Y434840D02*
D03*
X1053000Y490000D02*
D03*
D60*
X934510Y381090D02*
D03*
Y370090D02*
D03*
Y359090D02*
D03*
X945510Y381090D02*
D03*
Y370090D02*
D03*
Y359090D02*
D03*
X956510Y381090D02*
D03*
Y370090D02*
D03*
Y359090D02*
D03*
X1001260Y497840D02*
D03*
X1033270Y355430D02*
D03*
X1013270D02*
D03*
X860260Y223840D02*
D03*
X847260Y261840D02*
D03*
X877260Y339840D02*
D03*
X1020260Y291840D02*
D03*
Y313840D02*
D03*
X1057260Y346840D02*
D03*
X988270Y344430D02*
D03*
X1014260Y405840D02*
D03*
X983260Y435840D02*
D03*
X1015260Y469840D02*
D03*
X1038260Y406840D02*
D03*
X925260Y448840D02*
D03*
X905260D02*
D03*
X870260Y372840D02*
D03*
X985250Y407750D02*
D03*
M02*
