G04*
G04 #@! TF.GenerationSoftware,Altium Limited,Altium Designer,20.2.3 (150)*
G04*
G04 Layer_Color=16711935*
%FSLAX44Y44*%
%MOMM*%
G71*
G04*
G04 #@! TF.SameCoordinates,88EA2407-11FA-4F87-BFA0-285E861C9762*
G04*
G04*
G04 #@! TF.FilePolarity,Positive*
G04*
G01*
G75*
%ADD81C,0.1000*%
D81*
X958010Y508590D02*
G03*
X958010Y508590I5000J0D01*
G01*
X956510Y354090D02*
G03*
X956510Y354090I5000J0D01*
G01*
X1029960Y444340D02*
X1023960D01*
X1029960Y447340D02*
X1023960D01*
Y444340D02*
Y447340D01*
X1029960Y444340D02*
Y447340D01*
X1029260Y425340D02*
X1023260D01*
X1029260Y422340D02*
X1023260D01*
X1029260D02*
Y425340D01*
X1023260Y422340D02*
Y425340D01*
X1103760Y160340D02*
X1072760D01*
X1103760Y143340D02*
X1072760D01*
Y160340D01*
X1103760Y143340D02*
Y160340D01*
X972010Y467590D02*
X932010D01*
X972010Y517590D02*
X932010D01*
Y467590D02*
Y517590D01*
X972010Y467590D02*
Y517590D01*
X997000Y285500D02*
Y288500D01*
X1003000Y285500D02*
Y288500D01*
Y285500D02*
X997000D01*
X1003000Y288500D02*
X997000D01*
X952500Y290000D02*
X949500D01*
X952500Y284000D02*
X949500D01*
Y290000D01*
X952500Y284000D02*
Y290000D01*
X969510Y345090D02*
X921510D01*
X920510Y346090D01*
Y394090D01*
X921510Y395090D02*
X920510Y394090D01*
X969510Y395090D02*
X921510D01*
X970510Y394090D02*
X969510Y395090D01*
X970510Y346090D02*
Y394090D01*
Y346090D02*
X969510Y345090D01*
M02*
