G04*
G04 #@! TF.GenerationSoftware,Altium Limited,Altium Designer,20.2.3 (150)*
G04*
G04 Layer_Physical_Order=1*
G04 Layer_Color=255*
%FSLAX44Y44*%
%MOMM*%
G71*
G04*
G04 #@! TF.SameCoordinates,88EA2407-11FA-4F87-BFA0-285E861C9762*
G04*
G04*
G04 #@! TF.FilePolarity,Positive*
G04*
G01*
G75*
%ADD10C,0.2500*%
%ADD11C,0.6000*%
%ADD12C,0.2540*%
%ADD17R,1.2000X1.2000*%
G04:AMPARAMS|DCode=18|XSize=1mm|YSize=1.4mm|CornerRadius=0.125mm|HoleSize=0mm|Usage=FLASHONLY|Rotation=0.000|XOffset=0mm|YOffset=0mm|HoleType=Round|Shape=RoundedRectangle|*
%AMROUNDEDRECTD18*
21,1,1.0000,1.1500,0,0,0.0*
21,1,0.7500,1.4000,0,0,0.0*
1,1,0.2500,0.3750,-0.5750*
1,1,0.2500,-0.3750,-0.5750*
1,1,0.2500,-0.3750,0.5750*
1,1,0.2500,0.3750,0.5750*
%
%ADD18ROUNDEDRECTD18*%
G04:AMPARAMS|DCode=19|XSize=0.7mm|YSize=1.5mm|CornerRadius=0.0875mm|HoleSize=0mm|Usage=FLASHONLY|Rotation=270.000|XOffset=0mm|YOffset=0mm|HoleType=Round|Shape=RoundedRectangle|*
%AMROUNDEDRECTD19*
21,1,0.7000,1.3250,0,0,270.0*
21,1,0.5250,1.5000,0,0,270.0*
1,1,0.1750,-0.6625,-0.2625*
1,1,0.1750,-0.6625,0.2625*
1,1,0.1750,0.6625,0.2625*
1,1,0.1750,0.6625,-0.2625*
%
%ADD19ROUNDEDRECTD19*%
%ADD20R,0.5000X3.0000*%
G04:AMPARAMS|DCode=21|XSize=0.6mm|YSize=1mm|CornerRadius=0.105mm|HoleSize=0mm|Usage=FLASHONLY|Rotation=180.000|XOffset=0mm|YOffset=0mm|HoleType=Round|Shape=RoundedRectangle|*
%AMROUNDEDRECTD21*
21,1,0.6000,0.7900,0,0,180.0*
21,1,0.3900,1.0000,0,0,180.0*
1,1,0.2100,-0.1950,0.3950*
1,1,0.2100,0.1950,0.3950*
1,1,0.2100,0.1950,-0.3950*
1,1,0.2100,-0.1950,-0.3950*
%
%ADD21ROUNDEDRECTD21*%
%ADD22R,3.7000X3.7000*%
%ADD23R,0.6000X0.3000*%
%ADD24R,0.3000X0.6000*%
%ADD25R,1.6500X0.8000*%
%ADD26R,0.5000X0.4400*%
G04:AMPARAMS|DCode=27|XSize=0.6mm|YSize=1mm|CornerRadius=0.105mm|HoleSize=0mm|Usage=FLASHONLY|Rotation=90.000|XOffset=0mm|YOffset=0mm|HoleType=Round|Shape=RoundedRectangle|*
%AMROUNDEDRECTD27*
21,1,0.6000,0.7900,0,0,90.0*
21,1,0.3900,1.0000,0,0,90.0*
1,1,0.2100,0.3950,0.1950*
1,1,0.2100,0.3950,-0.1950*
1,1,0.2100,-0.3950,-0.1950*
1,1,0.2100,-0.3950,0.1950*
%
%ADD27ROUNDEDRECTD27*%
%ADD28R,0.6000X1.0500*%
G04:AMPARAMS|DCode=29|XSize=0.7mm|YSize=1.5mm|CornerRadius=0.0875mm|HoleSize=0mm|Usage=FLASHONLY|Rotation=0.000|XOffset=0mm|YOffset=0mm|HoleType=Round|Shape=RoundedRectangle|*
%AMROUNDEDRECTD29*
21,1,0.7000,1.3250,0,0,0.0*
21,1,0.5250,1.5000,0,0,0.0*
1,1,0.1750,0.2625,-0.6625*
1,1,0.1750,-0.2625,-0.6625*
1,1,0.1750,-0.2625,0.6625*
1,1,0.1750,0.2625,0.6625*
%
%ADD29ROUNDEDRECTD29*%
%ADD30O,1.4500X0.6000*%
%ADD31R,0.4400X0.5000*%
%ADD32R,1.0000X0.9000*%
%ADD33O,0.8000X0.2500*%
%ADD34O,0.2500X0.8000*%
%ADD55C,0.9000*%
%ADD61R,3.0000X2.5000*%
%ADD62C,0.2484*%
%ADD63C,0.2331*%
%ADD64C,0.5000*%
%ADD65C,1.5240*%
%ADD66O,3.0000X2.0000*%
%ADD67R,3.0000X2.0000*%
%ADD68C,1.2700*%
%ADD69C,0.5000*%
D10*
X954535Y165616D02*
X953760Y164840D01*
X954535Y165616D02*
Y174536D01*
X956000Y176000D02*
X954535Y174536D01*
X997000Y177000D02*
X996000Y176000D01*
X956000D01*
X962100Y292000D02*
X951000D01*
X964260Y289840D02*
X962100Y292000D01*
X964260Y287840D02*
Y289840D01*
X837420Y172000D02*
X836260Y170840D01*
X865000Y172000D02*
X837420D01*
X879420Y231000D02*
X878464D01*
X877000Y229536D01*
Y184000D02*
Y229536D01*
Y184000D02*
X865000Y172000D01*
X895260Y244840D02*
X893260D01*
X879420Y231000D01*
X919000Y244500D02*
X918830Y244670D01*
X897168D01*
X896998Y244500D01*
X1092260Y345240D02*
X1082020Y335000D01*
X1097260Y345240D02*
X1092260D01*
X1082020Y335000D02*
X978000D01*
X969760Y343240D02*
Y352590D01*
X978000Y335000D02*
X969760Y343240D01*
X953010Y345840D02*
X948010D01*
X1053000Y509000D02*
Y510000D01*
X987160Y306840D02*
X978260D01*
X980260Y530840D02*
X961260D01*
X960260Y531840D01*
X931000Y293000D02*
Y297840D01*
X1002000Y293000D02*
X987160Y306840D01*
X1002000Y290000D02*
Y293000D01*
X1003750Y288250D02*
X1002000Y290000D01*
X1004130Y270710D02*
X1003260Y269840D01*
X1004130Y270710D02*
Y286130D01*
X1005000Y287000D02*
X1004130Y286130D01*
X1054100Y488900D02*
X1053000Y490000D01*
X1056619Y486956D02*
X1056369D01*
X1097130Y444245D02*
X1092260Y445240D01*
X1070000Y482000D02*
X1063100Y488900D01*
X1054100D01*
X1053000Y490000D01*
X1071464Y444000D02*
X1070000Y445465D01*
X1097130Y444245D02*
X1071464Y444000D01*
X1097260Y445240D02*
X1097130Y444245D01*
X1070000Y445465D02*
Y482000D01*
X1056369Y486956D02*
X1055956Y486544D01*
X1092160Y469840D02*
X1053000Y509000D01*
X1097260Y469840D02*
X1092160D01*
X961260Y243840D02*
X943170Y225750D01*
X919000D01*
X981260Y145840D02*
X941840D01*
X927500Y131500D01*
Y163000D02*
X914500D01*
X907250Y116000D02*
Y155750D01*
X914500Y163000D02*
X907250Y155750D01*
X910250Y113000D02*
X907250Y116000D01*
X923750Y113000D02*
X910250D01*
X929494Y531840D02*
X928030Y530376D01*
Y530339D02*
Y530376D01*
X924760Y511640D02*
Y527069D01*
X944260Y531840D02*
X929494D01*
X929031D01*
X928030Y530339D02*
X924760Y527069D01*
X929031Y531840D02*
X922260Y534840D01*
D11*
X907260Y207840D02*
X895000Y214000D01*
X919000D02*
X907260Y207840D01*
X919000Y214000D02*
Y225750D01*
X960260Y528840D02*
X953260Y521840D01*
X957560Y473540D02*
X953260Y477840D01*
X979260Y473540D02*
X957560D01*
X953260Y477840D02*
Y521840D01*
X895255Y228533D02*
X895000Y214000D01*
X895260Y228840D02*
X895255Y228533D01*
D12*
X1025260Y552840D02*
X961000Y553000D01*
X1077260Y402328D02*
Y415840D01*
X1080260Y418840D02*
X1077260Y415840D01*
X1067260Y400840D02*
X1061260Y396840D01*
X975260Y396840D02*
X963030D01*
X1096260Y418840D02*
X1080260D01*
X1097260Y419840D02*
X1096260Y418840D01*
X1075772Y400840D02*
X1067260D01*
X963020Y393930D02*
Y396410D01*
X1077260Y402328D02*
X1075772Y400840D01*
X963040Y396430D02*
X963020Y396410D01*
X980510Y367590D02*
X969760D01*
X983260Y364840D02*
X980510Y367590D01*
X981010Y362590D02*
X969760D01*
X983260Y364840D02*
X981010Y362590D01*
X912260Y339840D02*
X877260D01*
X953010Y326590D02*
Y345840D01*
X952748Y281328D02*
X942260D01*
X997260Y499840D02*
X979260Y498940D01*
X994260Y425840D02*
X983772Y420840D01*
X996260Y441840D02*
X995748Y427328D01*
X994260Y425840D01*
X1007260Y452840D02*
X996260Y441840D01*
X1007260Y452840D02*
Y461840D01*
X1015260Y469840D02*
X1007260Y461840D01*
X1001260Y497840D02*
X997260Y499840D01*
X996260Y455840D02*
X947260D01*
X1001260Y460840D02*
X996260Y455840D01*
X1001260Y460840D02*
Y477840D01*
X993260Y483840D02*
X990860Y486240D01*
X993260Y462328D02*
X992772Y461840D01*
X990860Y486240D02*
X979260D01*
X993260Y462328D02*
Y483840D01*
X1017260Y493840D02*
X1001260Y477840D01*
X992772Y461840D02*
X944260D01*
X1023660Y445840D02*
X1023360D01*
X1014260Y405840D02*
Y436440D01*
X1022430Y444610D02*
X1014260Y436440D01*
X1023360Y445840D02*
X1022430Y444910D01*
Y444610D02*
Y444910D01*
X1033270Y355430D02*
X1027270Y361430D01*
X1003270D01*
X987270Y377680D02*
X969520D01*
X1003270Y361430D02*
X987270Y377680D01*
X1012270Y354430D02*
X1002270D01*
X1013270Y355430D02*
X1012270Y354430D01*
X984520Y372680D02*
X969770D01*
X1002270Y354430D02*
X984520Y372680D01*
X1001260Y346840D02*
X983260Y364840D01*
X1057260Y346840D02*
X1001260D01*
X847260Y223840D02*
X842260Y213840D01*
X860260Y223840D02*
X847260D01*
X836260Y193840D02*
X834260D01*
X809748Y193840D01*
X808260Y195328D01*
Y222840D01*
X847260Y261840D02*
X808260Y222840D01*
X792260Y100840D02*
X778260Y114840D01*
Y138840D01*
X836510Y109590D02*
Y138840D01*
X844260Y101840D02*
X836510Y109590D01*
X907260Y101840D02*
X844260D01*
X855260Y463840D02*
X836260Y468840D01*
X1097260Y345240D02*
X1094860Y342840D01*
X896990Y227110D02*
X895260Y228840D01*
X926260Y324840D02*
X917260Y320840D01*
X899260D01*
X933010Y331590D02*
X926260Y324840D01*
X933010Y331590D02*
Y345840D01*
X916260Y335840D02*
X912260Y339840D01*
X928010Y343130D02*
Y345840D01*
Y343130D02*
X920720Y335840D01*
X916260D01*
X916260Y297840D02*
X913260Y294840D01*
X933490Y297840D02*
X933260Y298070D01*
Y306840D01*
X944260D02*
X933260D01*
X944260Y306840D02*
X944260Y306840D01*
X960260Y528840D02*
Y530840D01*
X943260Y299352D02*
X942260Y281328D01*
X955772Y300840D02*
X944748D01*
X943260Y299352D01*
X961260Y302328D02*
Y306840D01*
Y302328D02*
X955772Y300840D01*
X961000Y315000D02*
X945260Y314840D01*
Y318840D01*
X953010Y326590D02*
X945260Y318840D01*
X961000Y315000D02*
X951260Y323840D01*
X962960Y270540D02*
X953260Y277440D01*
X962960Y265840D02*
Y270540D01*
X961260Y243840D02*
Y264140D01*
X962960Y265840D02*
X961260Y264140D01*
X1003260Y269840D02*
X1002560Y272540D01*
X981560Y286840D02*
X980410Y287990D01*
X995000Y287000D02*
X981560Y286840D01*
X978260Y320840D02*
X975260Y323840D01*
X978260Y314840D02*
Y320840D01*
X883260Y320840D02*
X866260D01*
X865260Y321840D01*
X1008260Y218840D02*
Y220840D01*
X963010Y336090D02*
Y345840D01*
X975260Y323840D02*
X963010Y336090D01*
X988260Y323840D02*
X975260D01*
X1020260Y291840D02*
X988260Y323840D01*
X1083260Y314840D02*
X1063760D01*
X1084260Y301840D02*
X1083260Y314840D01*
X1045010D02*
X1021260D01*
X1020260Y313840D01*
X979782Y357180D02*
X969770D01*
X981270Y355692D02*
X979782Y357180D01*
X981270Y351798D02*
Y355692D01*
X988270Y344798D02*
X981270Y351798D01*
X988270Y344430D02*
Y344798D01*
X1038260Y406840D02*
X1029560Y415540D01*
Y423840D01*
X1064260Y449840D02*
X1059750Y455500D01*
X1064260Y425840D02*
Y449840D01*
Y425840D02*
X1056260Y417840D01*
X1048260D01*
X1042260Y423840D02*
X1029560D01*
X1048260Y417840D02*
X1042260Y423840D01*
X1023660Y445840D02*
Y456240D01*
X1029250Y464750D02*
X1023660Y456240D01*
X1034750Y471750D02*
X1029250Y464750D01*
X1043760Y471840D02*
X1034750Y471750D01*
X1026610Y436190D02*
X1022960Y432540D01*
X1030260Y439840D02*
X1026610Y436190D01*
X1050260Y434840D02*
X1026610Y436190D01*
X1022960Y423840D02*
Y432540D01*
X1030260Y439840D02*
Y445840D01*
X1011510Y511840D02*
X992910D01*
X990460Y511640D01*
X1017260Y507840D02*
X1011510Y511840D01*
X1017260Y493840D02*
Y507840D01*
X943010Y394340D02*
Y451590D01*
X947260Y455840D02*
X943010Y451590D01*
X948010Y394340D02*
Y417590D01*
X956260Y428590D02*
X953135D01*
X950905Y426360D01*
Y420485D02*
Y426360D01*
Y420485D02*
X948010Y417590D01*
X976760Y447340D02*
X956260D01*
X983260Y435840D02*
X976760Y447340D01*
X925260Y448840D02*
X914748Y459352D01*
X924760Y473540D02*
X914748D01*
Y459352D02*
Y473540D01*
X888260Y449328D02*
Y461840D01*
X888748Y448840D02*
X888260Y449328D01*
X905260Y448840D02*
X888748D01*
X885260Y464840D02*
Y466840D01*
X888260Y461840D02*
X885260Y464840D01*
Y466840D02*
X884260Y467840D01*
Y483840D01*
X924760Y486240D02*
X886660D01*
X884260Y483840D01*
X990460Y511640D02*
X979260D01*
X938010Y394340D02*
Y455590D01*
X944260Y461840D02*
X938010Y455590D01*
X933010Y394340D02*
Y403090D01*
X928260Y407840D01*
X907260D02*
X899260Y415840D01*
X928260Y407840D02*
X907260D01*
X899260Y415840D02*
Y427840D01*
X882260Y444840D01*
X880772Y460840D02*
X880260D01*
X882260Y459352D02*
X880772Y460840D01*
X882260Y444840D02*
Y459352D01*
X880260Y460840D02*
X877260Y463840D01*
X873360Y498940D02*
X870312Y495892D01*
Y493788D02*
Y495892D01*
X877260Y486840D02*
X870312Y493788D01*
X877260Y463840D02*
Y486840D01*
X924760Y498940D02*
X873360D01*
X1061260Y396840D02*
X979260D01*
X975260Y396840D01*
X836260Y326840D02*
Y344240D01*
X848260Y307840D02*
X836260Y326840D01*
X938010Y323590D02*
X923260Y307840D01*
X848260D01*
X938010Y323590D02*
Y345840D01*
X1097260Y520640D02*
X1095460Y518840D01*
X1074260D01*
X865260Y489840D02*
Y544840D01*
X871260Y460840D02*
Y483840D01*
X865260Y489840D01*
X876260Y440840D02*
Y455840D01*
X871260Y460840D01*
X894260Y413840D02*
Y422840D01*
X876260Y440840D01*
X928010Y394340D02*
X913760D01*
X894260Y413840D01*
X855460Y519640D02*
X836260D01*
X860260Y483840D02*
Y514840D01*
X855460Y519640D01*
X866260Y456840D02*
Y477840D01*
X860260Y483840D01*
X871260Y437840D02*
Y451840D01*
X866260Y456840D01*
X887260Y410840D02*
Y421840D01*
X871260Y437840D01*
X910510Y387590D02*
X887260Y410840D01*
X921260Y387590D02*
X910510D01*
X853201Y490899D02*
X839601D01*
X855260Y488840D02*
X853201Y490899D01*
X855260Y478840D02*
Y488840D01*
X861260Y451840D02*
Y472840D01*
X855260Y478840D01*
X866260Y446840D02*
X861260Y451840D01*
X866260Y433840D02*
Y446840D01*
X881260Y418840D02*
X866260Y433840D01*
X881260Y407340D02*
Y418840D01*
X906010Y382590D02*
X881260Y407340D01*
X921260Y382590D02*
X906010D01*
X855260Y447840D02*
Y463840D01*
X861260Y429840D02*
Y441840D01*
X855260Y447840D01*
X867260Y407840D02*
Y423840D01*
X861260Y429840D01*
X880260Y401840D02*
X873260D01*
X867260Y407840D01*
X921260Y377590D02*
X900748D01*
X899260Y379078D01*
Y382840D01*
X880260Y401840D01*
X850860Y444240D02*
X836260D01*
X856260Y438840D02*
X850860Y444240D01*
X856260Y425840D02*
Y438840D01*
X861260Y420840D02*
X856260Y425840D01*
X861260Y404840D02*
Y420840D01*
X866260Y399840D02*
X861260Y404840D01*
X866260Y396840D02*
Y399840D01*
X868260Y394840D02*
X866260Y396840D01*
X880260Y394840D02*
X868260D01*
X921260Y372590D02*
X894748D01*
X893260Y374078D01*
Y381840D01*
X880260Y394840D01*
X858260Y399840D02*
X857748D01*
X856260Y401328D01*
Y414840D01*
X852260Y418840D01*
X861260Y396840D02*
X858260Y399840D01*
X862748Y388840D02*
X861260Y390328D01*
Y396840D01*
X852260Y418840D02*
X846260D01*
X878260Y388840D02*
X862748D01*
X921260Y367590D02*
X889748D01*
X888260Y369078D01*
Y378840D01*
X878260Y388840D01*
X870260Y364840D02*
Y372840D01*
X921260Y362590D02*
X872510D01*
X870260Y364840D01*
X852260Y395840D02*
X834260D01*
X856260Y391840D02*
X852260Y395840D01*
X856260Y370840D02*
Y391840D01*
X869510Y357590D02*
X856260Y370840D01*
X921260Y357590D02*
X869510D01*
X921260Y352590D02*
X867510D01*
X851260Y368840D02*
X836260D01*
X867510Y352590D02*
X851260Y368840D01*
X980410Y287990D02*
X980260Y287840D01*
X995000Y287000D02*
X994110Y286990D01*
X940260Y21840D02*
Y45840D01*
X946260Y51840D02*
X940260Y45840D01*
X1030260Y48840D02*
X1027260Y51840D01*
X1030260Y21840D02*
Y48840D01*
X1027260Y51840D02*
X1007260D01*
X1030260Y54840D02*
X1027260Y51840D01*
X1030260Y54840D02*
Y76840D01*
X940260Y57840D02*
Y76840D01*
X946260Y51840D02*
X940260Y57840D01*
X963260Y51840D02*
X946260D01*
X940260Y21840D02*
Y28840D01*
X1007260Y51840D02*
X963260D01*
X1030260Y76840D02*
X1024260Y70840D01*
X963031Y186168D02*
X959530Y187360D01*
X963260Y186090D02*
X963031Y186168D01*
X1103260Y215352D02*
X1101772Y216840D01*
X1013260Y126840D02*
X1011030Y124610D01*
X973010Y161840D02*
X972760Y164840D01*
X963260Y186090D02*
Y186840D01*
X1068260Y243840D02*
X1059260Y234840D01*
X1045260D01*
X1062260Y216840D02*
Y218740D01*
X1053000Y228000D01*
X1046748D02*
X1045260Y229488D01*
Y234840D01*
X1053000Y228000D02*
X1046748D01*
X933490Y297840D02*
X931000D01*
X916260D01*
X942260Y281328D02*
X939932Y285000D01*
X931000D01*
X895572Y228215D02*
X895255Y228533D01*
X895197Y228590D01*
X953260Y277440D02*
Y281840D01*
X952748Y281328D01*
X958020Y393930D02*
Y400244D01*
X953010Y394340D02*
Y407590D01*
X957260Y411840D02*
X953010Y407590D01*
X983772Y420840D02*
X976260Y413328D01*
X974772Y411840D01*
X957260D01*
X985250Y407750D02*
X965526D01*
X958020Y400244D01*
X972470Y352590D02*
X969760D01*
X892260Y552840D02*
X865260Y544840D01*
X1074260Y518840D02*
X1025260Y552840D01*
X961000Y553000D02*
X892260Y552840D01*
X928010Y394340D02*
Y397050D01*
X922260Y534840D02*
X921220Y533800D01*
X925010Y531590D02*
X924760Y531340D01*
X926766Y534840D02*
X922260D01*
D17*
X927500Y131500D02*
D03*
Y163000D02*
D03*
D18*
X963260Y186840D02*
D03*
X953760Y164840D02*
D03*
X972760Y164840D02*
D03*
D19*
X1013260Y145590D02*
D03*
Y126840D02*
D03*
X919000Y225750D02*
D03*
Y244500D02*
D03*
X956260Y447340D02*
D03*
Y428590D02*
D03*
X1088260Y208090D02*
D03*
Y226840D02*
D03*
D20*
X969260Y76840D02*
D03*
X977260D02*
D03*
X985260D02*
D03*
X993260D02*
D03*
X1001260D02*
D03*
D21*
X939750Y113000D02*
D03*
X923750D02*
D03*
X883260Y320840D02*
D03*
X899260D02*
D03*
X964260Y287840D02*
D03*
X980260D02*
D03*
X944260Y531840D02*
D03*
X960260D02*
D03*
D22*
X945510Y370090D02*
D03*
D23*
X931000Y285000D02*
D03*
Y293000D02*
D03*
X978260Y306840D02*
D03*
Y314840D02*
D03*
X961000Y307000D02*
D03*
Y315000D02*
D03*
X944260Y306840D02*
D03*
Y314840D02*
D03*
D24*
X1004260Y380840D02*
D03*
X996260D02*
D03*
D25*
X778260Y138840D02*
D03*
X778522Y170832D02*
D03*
Y193832D02*
D03*
Y212832D02*
D03*
X836510Y213090D02*
D03*
X836260Y193840D02*
D03*
Y170840D02*
D03*
X836510Y138840D02*
D03*
D26*
X1023660Y445840D02*
D03*
X1030260D02*
D03*
X1029560Y423840D02*
D03*
X1022960D02*
D03*
X995000Y287000D02*
D03*
X1005000D02*
D03*
D27*
X895260Y244840D02*
D03*
Y228840D02*
D03*
X1045260Y218840D02*
D03*
Y234840D02*
D03*
D28*
X1078760Y165590D02*
D03*
X1088260D02*
D03*
X1097760D02*
D03*
Y138090D02*
D03*
X1078760D02*
D03*
D29*
X1063760Y314840D02*
D03*
X1045010D02*
D03*
D30*
X924760Y473540D02*
D03*
Y486240D02*
D03*
Y498940D02*
D03*
Y511640D02*
D03*
X979260Y473540D02*
D03*
Y486240D02*
D03*
Y498940D02*
D03*
Y511640D02*
D03*
D31*
X951000Y292000D02*
D03*
Y282000D02*
D03*
D32*
X1041750Y455500D02*
D03*
X1059750D02*
D03*
X1042000Y471500D02*
D03*
X1059750D02*
D03*
D33*
X969760Y352590D02*
D03*
Y357590D02*
D03*
Y362590D02*
D03*
Y367590D02*
D03*
Y372590D02*
D03*
Y377590D02*
D03*
Y382590D02*
D03*
Y387590D02*
D03*
X921260D02*
D03*
Y382590D02*
D03*
Y377590D02*
D03*
Y372590D02*
D03*
Y367590D02*
D03*
Y362590D02*
D03*
Y357590D02*
D03*
Y352590D02*
D03*
D34*
X963010Y394340D02*
D03*
X958010D02*
D03*
X953010D02*
D03*
X948010D02*
D03*
X943010D02*
D03*
X938010D02*
D03*
X933010D02*
D03*
X928010D02*
D03*
Y345840D02*
D03*
X933010D02*
D03*
X938010D02*
D03*
X943010D02*
D03*
X948010D02*
D03*
X953010D02*
D03*
X958010D02*
D03*
X963010D02*
D03*
D55*
X963260Y51840D02*
D03*
X1007260D02*
D03*
D61*
X940260Y76840D02*
D03*
Y21840D02*
D03*
X1030260D02*
D03*
Y76840D02*
D03*
D62*
X1097260Y369840D02*
X1096773D01*
X1098724D02*
X1097260D01*
X1049122Y384307D02*
X1039601Y393828D01*
X999809D01*
X1038137Y390294D02*
X1001273D01*
X1004260Y380840D02*
Y382340D01*
X1085840Y384307D02*
X1049122D01*
X999809Y393828D02*
X993571Y387590D01*
X969760D01*
X1096773Y369840D02*
X1085840Y380773D01*
X1096773Y395240D02*
X1085840Y384307D01*
X1085840Y380773D02*
X1047658D01*
X1038137Y390294D01*
X1001273D02*
X999818Y388840D01*
Y386782D02*
Y388840D01*
X1004260Y382340D02*
X999818Y386782D01*
X1097260Y395240D02*
X1096773D01*
X996260Y380840D02*
X994510Y382590D01*
X969760D01*
D63*
X965260Y288840D02*
X964260Y287840D01*
X968260Y288840D02*
X965260D01*
X969260Y289840D02*
X968260Y288840D01*
X969260Y289840D02*
Y317840D01*
X958010Y329090D02*
Y345840D01*
X969260Y317840D02*
X958010Y329090D01*
D64*
X1062260Y50340D02*
Y88840D01*
X1049260Y266840D02*
Y288911D01*
X1046331Y291840D01*
X1020260D01*
X1022260Y234840D02*
Y239840D01*
X1049260Y266840D02*
X1022260Y239840D01*
Y234840D02*
X1008260Y220840D01*
X1101772Y216840D02*
X1062260D01*
X1009110Y217990D02*
X1008260Y218840D01*
X1022110Y217990D02*
X1009110D01*
X1043260Y201840D02*
X1022110Y217990D01*
X965260Y120840D02*
X953260D01*
X969260Y76840D02*
Y116840D01*
X1013260Y145590D02*
X981510D01*
X981260Y145840D02*
X973260Y153840D01*
X907260Y48840D02*
Y101840D01*
X1062260Y88840D02*
X1053260Y97840D01*
X1044260D01*
X1030260Y111840D01*
X1081260Y151840D02*
X1078760Y154340D01*
Y165590D01*
X1087260Y151840D02*
X1081260D01*
X1089260Y112840D02*
X1085260Y108840D01*
X1058260D01*
X1042260Y124840D01*
X1089260Y149840D02*
X1087260Y151840D01*
X1042260Y124840D02*
Y171840D01*
X1089260Y112840D02*
Y149840D01*
X1011260Y202840D02*
X967260D01*
X1042260Y171840D02*
X1011260Y202840D01*
X963260Y186840D02*
Y198840D01*
X967260Y202840D02*
X963260Y198840D01*
X1043260Y201840D02*
Y218840D01*
Y201840D02*
X1042260Y197840D01*
X1049260D02*
X1042260D01*
X1060260Y186840D02*
X1049260Y197840D01*
X1060260Y129840D02*
Y186840D01*
X1066260Y123840D02*
X1060260Y129840D01*
X1074260Y123840D02*
X1066260D01*
X1001260Y76840D02*
Y95840D01*
X1019260Y100840D02*
X1006260D01*
X1001260Y95840D01*
X1030260Y111840D02*
Y157840D01*
Y111840D02*
X1019260Y100840D01*
X1030260Y157840D02*
X1025260Y162840D01*
X1018260D01*
X1013260Y157840D01*
Y146590D02*
Y157840D01*
X1103260Y191840D02*
Y215352D01*
Y191840D02*
X1088260Y176840D01*
Y165590D02*
Y176840D01*
X1097760Y165590D02*
Y173340D01*
X1113260Y182840D02*
X1097760Y173340D01*
X1113260Y182840D02*
Y239840D01*
X1104260Y245840D01*
X1092260D02*
X1088260Y238840D01*
X1104260Y245840D02*
X1092260D01*
X1088260Y226840D02*
Y238840D01*
X1078760Y165590D02*
Y184340D01*
X1088260Y193840D02*
Y208090D01*
Y193840D02*
X1078760Y184340D01*
Y128340D02*
Y138090D01*
Y128340D02*
X1074260Y123840D01*
X973260Y153840D02*
X973010Y161840D01*
X969260Y116840D02*
X965260Y120840D01*
X959530Y187360D02*
X935860D01*
X927500Y163000D02*
Y179000D01*
X935860Y187360D02*
X927500Y179000D01*
X1013260Y126840D02*
X979260D01*
X969260Y116840D01*
X940250Y115500D02*
X939750Y113000D01*
X953260Y120840D02*
X947920Y115500D01*
X940250D01*
X939750Y115000D01*
Y113000D02*
Y115000D01*
D65*
X52000Y50000D02*
D03*
Y580000D02*
D03*
X1142000Y580000D02*
D03*
Y50000D02*
D03*
X504000Y595000D02*
D03*
X663000D02*
D03*
X662000Y40000D02*
D03*
X528000Y39000D02*
D03*
X186000D02*
D03*
X320000Y40000D02*
D03*
X321000Y595000D02*
D03*
X162000D02*
D03*
D66*
X1097260Y469840D02*
D03*
Y495240D02*
D03*
Y419840D02*
D03*
Y445240D02*
D03*
Y369840D02*
D03*
Y395240D02*
D03*
Y345240D02*
D03*
X836260Y468840D02*
D03*
Y494240D02*
D03*
Y418840D02*
D03*
Y444240D02*
D03*
Y368840D02*
D03*
Y394240D02*
D03*
Y344240D02*
D03*
D67*
X1097260Y520640D02*
D03*
X836260Y519640D02*
D03*
D68*
X997000Y177000D02*
D03*
X1008260Y218840D02*
D03*
X1053000Y510000D02*
D03*
X1057000Y365250D02*
D03*
X907260Y50840D02*
D03*
X1062260Y50340D02*
D03*
X917260Y320840D02*
D03*
X913260Y294840D02*
D03*
X922260Y534840D02*
D03*
X792260Y100840D02*
D03*
X970260Y123840D02*
D03*
X907260Y207840D02*
D03*
X1068260Y243840D02*
D03*
X980260Y530840D02*
D03*
X961260Y243840D02*
D03*
X1003260Y269840D02*
D03*
X865260Y321840D02*
D03*
X1084260Y301840D02*
D03*
X1050260Y434840D02*
D03*
X1053000Y490000D02*
D03*
D69*
X934510Y381090D02*
D03*
Y370090D02*
D03*
Y359090D02*
D03*
X945510Y381090D02*
D03*
Y370090D02*
D03*
Y359090D02*
D03*
X956510Y381090D02*
D03*
Y370090D02*
D03*
Y359090D02*
D03*
X1001260Y497840D02*
D03*
X1033270Y355430D02*
D03*
X1013270D02*
D03*
X860260Y223840D02*
D03*
X847260Y261840D02*
D03*
X877260Y339840D02*
D03*
X1020260Y291840D02*
D03*
Y313840D02*
D03*
X1057260Y346840D02*
D03*
X988270Y344430D02*
D03*
X1014260Y405840D02*
D03*
X983260Y435840D02*
D03*
X1015260Y469840D02*
D03*
X1038260Y406840D02*
D03*
X925260Y448840D02*
D03*
X905260D02*
D03*
X870260Y372840D02*
D03*
X985250Y407750D02*
D03*
M02*
