G04*
G04 #@! TF.GenerationSoftware,Altium Limited,Altium Designer,20.2.3 (150)*
G04*
G04 Layer_Physical_Order=4*
G04 Layer_Color=16711680*
%FSLAX44Y44*%
%MOMM*%
G71*
G04*
G04 #@! TF.SameCoordinates,88EA2407-11FA-4F87-BFA0-285E861C9762*
G04*
G04*
G04 #@! TF.FilePolarity,Positive*
G04*
G01*
G75*
%ADD10C,0.2500*%
%ADD11C,0.6000*%
%ADD12C,0.2540*%
%ADD55C,0.9000*%
%ADD65C,1.5240*%
%ADD66O,3.0000X2.0000*%
%ADD67R,3.0000X2.0000*%
%ADD68C,1.2700*%
%ADD69C,0.5000*%
D10*
X602849Y30630D02*
X594479Y39000D01*
X856965Y177000D02*
X710595Y30630D01*
X594479Y39000D02*
X528000D01*
X710595Y30630D02*
X602849D01*
X997000Y177000D02*
X856965D01*
X201000Y39000D02*
X186000D01*
X555000Y102000D02*
X264000D01*
X201000Y39000D01*
X662000Y40000D02*
X617000D01*
X555000Y102000D01*
X858000Y265000D02*
X855035Y267964D01*
X847260Y261840D02*
Y262260D01*
X852964Y267964D02*
X847260Y262260D01*
X855035Y267964D02*
X852964D01*
X976000Y256707D02*
Y263535D01*
X974535Y265000D01*
X858000D01*
X993000Y243000D02*
X992035Y242036D01*
X990671D01*
X976000Y256707D01*
X1010000Y243000D02*
X993000D01*
X1045318Y278318D02*
X1010000Y243000D01*
X1096318Y278318D02*
X1045318D01*
X1105000Y337500D02*
X1097260Y345240D01*
X1105000Y287000D02*
Y337500D01*
Y287000D02*
X1096318Y278318D01*
X1057130Y365120D02*
X1057000Y365250D01*
X1097260Y469840D02*
X1088160D01*
X985250Y407750D02*
Y412500D01*
X1057260Y346840D02*
X1057130Y346970D01*
Y365120D01*
D11*
X937772Y76352D02*
X907260Y50840D01*
X1038260Y76352D02*
X937772D01*
X1062260Y50340D02*
X1038260Y75346D01*
D12*
X862260Y380840D02*
Y505000D01*
X869260Y512000D02*
X862260Y505000D01*
X1022840Y536840D02*
X998000Y512000D01*
X869260D01*
X1069772Y536840D02*
X1022840D01*
X877260Y339840D02*
X862260D01*
X1001260Y483840D02*
Y497840D01*
X1015260Y469840D02*
X1001260Y483840D01*
X1033260Y355840D02*
Y364840D01*
X1025260Y372840D02*
Y378840D01*
X937772Y76352D02*
X936260Y74840D01*
X1038260Y75346D02*
Y76352D01*
X860260Y223840D02*
X840260Y243840D01*
X818260Y250840D01*
X817260Y264840D01*
X822260Y299840D02*
X817260Y264840D01*
X862260Y339840D02*
X822260Y299840D01*
X916260Y320840D02*
X912260Y332840D01*
X915260Y340840D02*
X912260Y332840D01*
X921260Y346840D02*
X915260Y340840D01*
X965260Y346840D02*
X921260D01*
X1020260Y291840D02*
X965260Y346840D01*
X1052260Y291840D02*
X1020260D01*
X1057260Y296840D02*
X1052260Y291840D01*
X1057260Y296840D02*
Y346840D01*
X1019260Y313840D02*
X988260Y344840D01*
X1020260Y313840D02*
X1019260D01*
X1033260Y364840D02*
X1025260Y372840D01*
Y378840D02*
Y383840D01*
X1029260Y387840D02*
X1025260Y383840D01*
X1039260Y387840D02*
X1029260D01*
X1052772Y401352D02*
X1039260Y387840D01*
X1052772Y401352D02*
Y412840D01*
X1052260D01*
X1043260Y421840D01*
X1030260D01*
X1014260Y405840D01*
X1013260Y355840D02*
Y381840D01*
X1038260Y406840D02*
X1013260Y381840D01*
X971260Y428840D02*
Y434840D01*
X970260Y435840D01*
X964260Y444840D01*
Y448840D01*
X965180Y453760D02*
X964260Y448840D01*
X965180Y453760D02*
Y465840D01*
X915748Y464840D01*
X915260Y464352D01*
Y458840D02*
Y464352D01*
X925260Y448840D02*
X915260Y458840D01*
X983260Y435840D02*
X977260Y449840D01*
Y470840D01*
X975260Y472840D01*
X908260D01*
X905260Y469840D01*
Y448840D02*
Y469840D01*
X1071260Y535352D02*
X1069772Y536840D01*
X836260Y418840D02*
X828852Y426248D01*
X985250Y412500D02*
X971260Y428840D01*
X1078260Y494840D02*
X1071260Y501840D01*
X1096860Y494840D02*
X1078260D01*
X1071260Y501840D02*
Y535352D01*
X1097260Y495240D02*
X1096860Y494840D01*
X956510Y381090D02*
Y381090D01*
X870260Y372840D02*
X862260Y380840D01*
D55*
X963260Y51840D02*
D03*
X1007260D02*
D03*
D65*
X52000Y50000D02*
D03*
Y580000D02*
D03*
X1142000Y580000D02*
D03*
Y50000D02*
D03*
X504000Y595000D02*
D03*
X663000D02*
D03*
X662000Y40000D02*
D03*
X528000Y39000D02*
D03*
X186000D02*
D03*
X320000Y40000D02*
D03*
X321000Y595000D02*
D03*
X162000D02*
D03*
D66*
X1097260Y469840D02*
D03*
Y495240D02*
D03*
Y419840D02*
D03*
Y445240D02*
D03*
Y369840D02*
D03*
Y395240D02*
D03*
Y345240D02*
D03*
X836260Y468840D02*
D03*
Y494240D02*
D03*
Y418840D02*
D03*
Y444240D02*
D03*
Y368840D02*
D03*
Y394240D02*
D03*
Y344240D02*
D03*
D67*
X1097260Y520640D02*
D03*
X836260Y519640D02*
D03*
D68*
X997000Y177000D02*
D03*
X1008260Y218840D02*
D03*
X1053000Y510000D02*
D03*
X1057000Y365250D02*
D03*
X907260Y50840D02*
D03*
X1062260Y50340D02*
D03*
X917260Y320840D02*
D03*
X913260Y294840D02*
D03*
X792260Y100840D02*
D03*
X970260Y123840D02*
D03*
X907260Y207840D02*
D03*
X1068260Y243840D02*
D03*
X980260Y530840D02*
D03*
X961260Y243840D02*
D03*
X1003260Y269840D02*
D03*
X865260Y321840D02*
D03*
X1084260Y301840D02*
D03*
X1050260Y434840D02*
D03*
X1053000Y490000D02*
D03*
D69*
X934510Y381090D02*
D03*
Y370090D02*
D03*
Y359090D02*
D03*
X945510Y381090D02*
D03*
Y370090D02*
D03*
Y359090D02*
D03*
X956510Y381090D02*
D03*
Y370090D02*
D03*
Y359090D02*
D03*
X1001260Y497840D02*
D03*
X1033270Y355430D02*
D03*
X1013270D02*
D03*
X860260Y223840D02*
D03*
X847260Y261840D02*
D03*
X877260Y339840D02*
D03*
X1020260Y291840D02*
D03*
Y313840D02*
D03*
X1057260Y346840D02*
D03*
X988270Y344430D02*
D03*
X1014260Y405840D02*
D03*
X983260Y435840D02*
D03*
X1015260Y469840D02*
D03*
X1038260Y406840D02*
D03*
X925260Y448840D02*
D03*
X905260D02*
D03*
X870260Y372840D02*
D03*
X985250Y407750D02*
D03*
M02*
