G04*
G04 #@! TF.GenerationSoftware,Altium Limited,Altium Designer,20.2.3 (150)*
G04*
G04 Layer_Color=128*
%FSLAX44Y44*%
%MOMM*%
G71*
G04*
G04 #@! TF.SameCoordinates,88EA2407-11FA-4F87-BFA0-285E861C9762*
G04*
G04*
G04 #@! TF.FilePolarity,Positive*
G04*
G01*
G75*
%ADD83C,0.0508*%
D83*
X224240Y51840D02*
X233240D01*
X228740Y47340D02*
Y56340D01*
X180240Y51840D02*
X189240D01*
X184740Y47340D02*
Y56340D01*
X1125000Y50000D02*
X1155000D01*
X1140000Y35000D02*
Y65000D01*
X1125000Y580000D02*
X1155000D01*
X1140000Y565000D02*
Y595000D01*
X35000Y580000D02*
X65000D01*
X50000Y565000D02*
Y595000D01*
X35000Y50000D02*
X65000D01*
X50000Y35000D02*
Y65000D01*
X89740Y469840D02*
X99740D01*
X94740Y464840D02*
Y474840D01*
X89740Y520640D02*
X99740D01*
X94740Y515640D02*
Y525640D01*
X89740Y495240D02*
X99740D01*
X94740Y490240D02*
Y500240D01*
X89740Y419840D02*
X99740D01*
X94740Y414840D02*
Y424840D01*
X89740Y445240D02*
X99740D01*
X94740Y440240D02*
Y450240D01*
X89740Y369840D02*
X99740D01*
X94740Y364840D02*
Y374840D01*
X89740Y395240D02*
X99740D01*
X94740Y390240D02*
Y400240D01*
X89740Y345240D02*
X99740D01*
X94740Y340240D02*
Y350240D01*
X350740Y468840D02*
X360740D01*
X355740Y463840D02*
Y473840D01*
X350740Y519640D02*
X360740D01*
X355740Y514640D02*
Y524640D01*
X350740Y494240D02*
X360740D01*
X355740Y489240D02*
Y499240D01*
X350740Y418840D02*
X360740D01*
X355740Y413840D02*
Y423840D01*
X350740Y444240D02*
X360740D01*
X355740Y439240D02*
Y449240D01*
X350740Y368840D02*
X360740D01*
X355740Y363840D02*
Y373840D01*
X350740Y394240D02*
X360740D01*
X355740Y389240D02*
Y399240D01*
X350740Y344240D02*
X360740D01*
X355740Y339240D02*
Y349240D01*
X684190Y595000D02*
X691810D01*
X688000Y591190D02*
Y598810D01*
X525190Y595000D02*
X532810D01*
X529000Y591190D02*
Y598810D01*
X526190Y40000D02*
X533810D01*
X530000Y36190D02*
Y43810D01*
X660190Y39000D02*
X667810D01*
X664000Y35190D02*
Y42810D01*
X1002190Y39000D02*
X1009810D01*
X1006000Y35190D02*
Y42810D01*
X868190Y40000D02*
X875810D01*
X872000Y36190D02*
Y43810D01*
X867190Y595000D02*
X874810D01*
X871000Y591190D02*
Y598810D01*
X1026190Y595000D02*
X1033810D01*
X1030000Y591190D02*
Y598810D01*
X191444Y177000D02*
X198556D01*
X195000Y173444D02*
Y180556D01*
X180184Y218840D02*
X187296D01*
X183740Y215284D02*
Y222396D01*
X135444Y510000D02*
X142556D01*
X139000Y506444D02*
Y513556D01*
X131444Y365250D02*
X138556D01*
X135000Y361694D02*
Y368806D01*
X256490Y381090D02*
X258490D01*
X257490Y380090D02*
Y382090D01*
X256490Y370090D02*
X258490D01*
X257490Y369090D02*
Y371090D01*
X256490Y359090D02*
X258490D01*
X257490Y358090D02*
Y360090D01*
X245490Y381090D02*
X247490D01*
X246490Y380090D02*
Y382090D01*
X245490Y370090D02*
X247490D01*
X246490Y369090D02*
Y371090D01*
X245490Y359090D02*
X247490D01*
X246490Y358090D02*
Y360090D01*
X234490Y381090D02*
X236490D01*
X235490Y380090D02*
Y382090D01*
X234490Y370090D02*
X236490D01*
X235490Y369090D02*
Y371090D01*
X234490Y359090D02*
X236490D01*
X235490Y358090D02*
Y360090D01*
X189740Y497840D02*
X191740D01*
X190740Y496840D02*
Y498840D01*
X157730Y355430D02*
X159730D01*
X158730Y354430D02*
Y356430D01*
X177730Y355430D02*
X179730D01*
X178730Y354430D02*
Y356430D01*
X281184Y50840D02*
X288296D01*
X284740Y47284D02*
Y54396D01*
X126184Y50340D02*
X133296D01*
X129740Y46784D02*
Y53896D01*
X330740Y223840D02*
X332740D01*
X331740Y222840D02*
Y224840D01*
X343740Y261840D02*
X345740D01*
X344740Y260840D02*
Y262840D01*
X271184Y320840D02*
X278296D01*
X274740Y317284D02*
Y324396D01*
X313740Y339840D02*
X315740D01*
X314740Y338840D02*
Y340840D01*
X170740Y291840D02*
X172740D01*
X171740Y290840D02*
Y292840D01*
X170740Y313840D02*
X172740D01*
X171740Y312840D02*
Y314840D01*
X133740Y346840D02*
X135740D01*
X134740Y345840D02*
Y347840D01*
X202730Y344430D02*
X204730D01*
X203730Y343430D02*
Y345430D01*
X176740Y405840D02*
X178740D01*
X177740Y404840D02*
Y406840D01*
X207740Y435840D02*
X209740D01*
X208740Y434840D02*
Y436840D01*
X175740Y469840D02*
X177740D01*
X176740Y468840D02*
Y470840D01*
X152740Y406840D02*
X154740D01*
X153740Y405840D02*
Y407840D01*
X265740Y448840D02*
X267740D01*
X266740Y447840D02*
Y449840D01*
X285740Y448840D02*
X287740D01*
X286740Y447840D02*
Y449840D01*
X320740Y372840D02*
X322740D01*
X321740Y371840D02*
Y373840D01*
X205750Y407750D02*
X207750D01*
X206750Y406750D02*
Y408750D01*
X275184Y294840D02*
X282296D01*
X278740Y291284D02*
Y298396D01*
X396184Y100840D02*
X403296D01*
X399740Y97284D02*
Y104396D01*
X218184Y123840D02*
X225296D01*
X221740Y120284D02*
Y127396D01*
X281184Y207840D02*
X288296D01*
X284740Y204284D02*
Y211396D01*
X120184Y243840D02*
X127296D01*
X123740Y240284D02*
Y247396D01*
X208184Y530840D02*
X215296D01*
X211740Y527284D02*
Y534396D01*
X227184Y243840D02*
X234296D01*
X230740Y240284D02*
Y247396D01*
X185184Y269840D02*
X192296D01*
X188740Y266284D02*
Y273396D01*
X323184Y321840D02*
X330296D01*
X326740Y318284D02*
Y325396D01*
X104184Y301840D02*
X111296D01*
X107740Y298284D02*
Y305396D01*
X138184Y434840D02*
X145296D01*
X141740Y431284D02*
Y438396D01*
X135444Y490000D02*
X142556D01*
X139000Y486444D02*
Y493556D01*
M02*
