G04*
G04 #@! TF.GenerationSoftware,Altium Limited,Altium Designer,20.2.3 (150)*
G04*
G04 Layer_Color=2752767*
%FSLAX44Y44*%
%MOMM*%
G71*
G04*
G04 #@! TF.SameCoordinates,88EA2407-11FA-4F87-BFA0-285E861C9762*
G04*
G04*
G04 #@! TF.FilePolarity,Positive*
G04*
G01*
G75*
%ADD83C,0.0508*%
%ADD84C,0.0677*%
D83*
X226708Y49808D02*
Y53872D01*
X230772D01*
Y49808D01*
X226708D01*
X182708D02*
Y53872D01*
X186772D01*
Y49808D01*
X182708D01*
X94740Y467808D02*
X92708Y471872D01*
X96772D01*
X94740Y467808D01*
Y518608D02*
X92708Y522672D01*
X96772D01*
X94740Y518608D01*
Y493208D02*
X92708Y497272D01*
X96772D01*
X94740Y493208D01*
Y417808D02*
X92708Y421872D01*
X96772D01*
X94740Y417808D01*
Y443208D02*
X92708Y447272D01*
X96772D01*
X94740Y443208D01*
Y367808D02*
X92708Y371872D01*
X96772D01*
X94740Y367808D01*
Y393208D02*
X92708Y397272D01*
X96772D01*
X94740Y393208D01*
Y343208D02*
X92708Y347272D01*
X96772D01*
X94740Y343208D01*
X355740Y466808D02*
X353708Y470872D01*
X357772D01*
X355740Y466808D01*
Y517608D02*
X353708Y521672D01*
X357772D01*
X355740Y517608D01*
Y492208D02*
X353708Y496272D01*
X357772D01*
X355740Y492208D01*
Y416808D02*
X353708Y420872D01*
X357772D01*
X355740Y416808D01*
Y442208D02*
X353708Y446272D01*
X357772D01*
X355740Y442208D01*
Y366808D02*
X353708Y370872D01*
X357772D01*
X355740Y366808D01*
Y392208D02*
X353708Y396272D01*
X357772D01*
X355740Y392208D01*
Y342208D02*
X353708Y346272D01*
X357772D01*
X355740Y342208D01*
X688000Y592968D02*
X689016Y593984D01*
X690032D01*
X689016Y595000D01*
X690032Y596016D01*
X689016D01*
X688000Y597032D01*
X686984Y596016D01*
X685968D01*
X686984Y595000D01*
X685968Y593984D01*
X686984D01*
X688000Y592968D01*
X529000D02*
X530016Y593984D01*
X531032D01*
X530016Y595000D01*
X531032Y596016D01*
X530016D01*
X529000Y597032D01*
X527984Y596016D01*
X526968D01*
X527984Y595000D01*
X526968Y593984D01*
X527984D01*
X529000Y592968D01*
X530000Y37968D02*
X531016Y38984D01*
X532032D01*
X531016Y40000D01*
X532032Y41016D01*
X531016D01*
X530000Y42032D01*
X528984Y41016D01*
X527968D01*
X528984Y40000D01*
X527968Y38984D01*
X528984D01*
X530000Y37968D01*
X664000Y36968D02*
X665016Y37984D01*
X666032D01*
X665016Y39000D01*
X666032Y40016D01*
X665016D01*
X664000Y41032D01*
X662984Y40016D01*
X661968D01*
X662984Y39000D01*
X661968Y37984D01*
X662984D01*
X664000Y36968D01*
X1006000D02*
X1007016Y37984D01*
X1008032D01*
X1007016Y39000D01*
X1008032Y40016D01*
X1007016D01*
X1006000Y41032D01*
X1004984Y40016D01*
X1003968D01*
X1004984Y39000D01*
X1003968Y37984D01*
X1004984D01*
X1006000Y36968D01*
X872000Y37968D02*
X873016Y38984D01*
X874032D01*
X873016Y40000D01*
X874032Y41016D01*
X873016D01*
X872000Y42032D01*
X870984Y41016D01*
X869968D01*
X870984Y40000D01*
X869968Y38984D01*
X870984D01*
X872000Y37968D01*
X871000Y592968D02*
X872016Y593984D01*
X873032D01*
X872016Y595000D01*
X873032Y596016D01*
X872016D01*
X871000Y597032D01*
X869984Y596016D01*
X868968D01*
X869984Y595000D01*
X868968Y593984D01*
X869984D01*
X871000Y592968D01*
X1030000D02*
X1031016Y593984D01*
X1032032D01*
X1031016Y595000D01*
X1032032Y596016D01*
X1031016D01*
X1030000Y597032D01*
X1028984Y596016D01*
X1027968D01*
X1028984Y595000D01*
X1027968Y593984D01*
X1028984D01*
X1030000Y592968D01*
X192968Y174968D02*
X193984Y177000D01*
X192968Y179032D01*
X195000Y178016D01*
X197032Y179032D01*
X196016Y177000D01*
X197032Y174968D01*
X195000Y175984D01*
X192968Y174968D01*
X181708Y216808D02*
X182724Y218840D01*
X181708Y220872D01*
X183740Y219856D01*
X185772Y220872D01*
X184756Y218840D01*
X185772Y216808D01*
X183740Y217824D01*
X181708Y216808D01*
X136968Y507968D02*
X137984Y510000D01*
X136968Y512032D01*
X139000Y511016D01*
X141032Y512032D01*
X140016Y510000D01*
X141032Y507968D01*
X139000Y508984D01*
X136968Y507968D01*
X132968Y363218D02*
X133984Y365250D01*
X132968Y367282D01*
X135000Y366266D01*
X137032Y367282D01*
X136016Y365250D01*
X137032Y363218D01*
X135000Y364234D01*
X132968Y363218D01*
X256474Y380074D02*
Y379058D01*
X258506D01*
Y380074D01*
X259522D01*
Y382106D01*
X258506D01*
Y383122D01*
X256474D01*
Y382106D01*
X255458D01*
Y380074D01*
X256474D01*
Y369074D02*
Y368058D01*
X258506D01*
Y369074D01*
X259522D01*
Y371106D01*
X258506D01*
Y372122D01*
X256474D01*
Y371106D01*
X255458D01*
Y369074D01*
X256474D01*
Y358074D02*
Y357058D01*
X258506D01*
Y358074D01*
X259522D01*
Y360106D01*
X258506D01*
Y361122D01*
X256474D01*
Y360106D01*
X255458D01*
Y358074D01*
X256474D01*
X245474Y380074D02*
Y379058D01*
X247506D01*
Y380074D01*
X248522D01*
Y382106D01*
X247506D01*
Y383122D01*
X245474D01*
Y382106D01*
X244458D01*
Y380074D01*
X245474D01*
Y369074D02*
Y368058D01*
X247506D01*
Y369074D01*
X248522D01*
Y371106D01*
X247506D01*
Y372122D01*
X245474D01*
Y371106D01*
X244458D01*
Y369074D01*
X245474D01*
Y358074D02*
Y357058D01*
X247506D01*
Y358074D01*
X248522D01*
Y360106D01*
X247506D01*
Y361122D01*
X245474D01*
Y360106D01*
X244458D01*
Y358074D01*
X245474D01*
X234474Y380074D02*
Y379058D01*
X236506D01*
Y380074D01*
X237522D01*
Y382106D01*
X236506D01*
Y383122D01*
X234474D01*
Y382106D01*
X233458D01*
Y380074D01*
X234474D01*
Y369074D02*
Y368058D01*
X236506D01*
Y369074D01*
X237522D01*
Y371106D01*
X236506D01*
Y372122D01*
X234474D01*
Y371106D01*
X233458D01*
Y369074D01*
X234474D01*
Y358074D02*
Y357058D01*
X236506D01*
Y358074D01*
X237522D01*
Y360106D01*
X236506D01*
Y361122D01*
X234474D01*
Y360106D01*
X233458D01*
Y358074D01*
X234474D01*
X189724Y496824D02*
Y495808D01*
X191756D01*
Y496824D01*
X192772D01*
Y498856D01*
X191756D01*
Y499872D01*
X189724D01*
Y498856D01*
X188708D01*
Y496824D01*
X189724D01*
X157714Y354414D02*
Y353398D01*
X159746D01*
Y354414D01*
X160762D01*
Y356446D01*
X159746D01*
Y357462D01*
X157714D01*
Y356446D01*
X156698D01*
Y354414D01*
X157714D01*
X177714D02*
Y353398D01*
X179746D01*
Y354414D01*
X180762D01*
Y356446D01*
X179746D01*
Y357462D01*
X177714D01*
Y356446D01*
X176698D01*
Y354414D01*
X177714D01*
X282708Y48808D02*
X283724Y50840D01*
X282708Y52872D01*
X284740Y51856D01*
X286772Y52872D01*
X285756Y50840D01*
X286772Y48808D01*
X284740Y49824D01*
X282708Y48808D01*
X127708Y48308D02*
X128724Y50340D01*
X127708Y52372D01*
X129740Y51356D01*
X131772Y52372D01*
X130756Y50340D01*
X131772Y48308D01*
X129740Y49324D01*
X127708Y48308D01*
X330724Y222824D02*
Y221808D01*
X332756D01*
Y222824D01*
X333772D01*
Y224856D01*
X332756D01*
Y225872D01*
X330724D01*
Y224856D01*
X329708D01*
Y222824D01*
X330724D01*
X343724Y260824D02*
Y259808D01*
X345756D01*
Y260824D01*
X346772D01*
Y262856D01*
X345756D01*
Y263872D01*
X343724D01*
Y262856D01*
X342708D01*
Y260824D01*
X343724D01*
X272708Y318808D02*
X273724Y320840D01*
X272708Y322872D01*
X274740Y321856D01*
X276772Y322872D01*
X275756Y320840D01*
X276772Y318808D01*
X274740Y319824D01*
X272708Y318808D01*
X313724Y338824D02*
Y337808D01*
X315756D01*
Y338824D01*
X316772D01*
Y340856D01*
X315756D01*
Y341872D01*
X313724D01*
Y340856D01*
X312708D01*
Y338824D01*
X313724D01*
X170724Y290824D02*
Y289808D01*
X172756D01*
Y290824D01*
X173772D01*
Y292856D01*
X172756D01*
Y293872D01*
X170724D01*
Y292856D01*
X169708D01*
Y290824D01*
X170724D01*
Y312824D02*
Y311808D01*
X172756D01*
Y312824D01*
X173772D01*
Y314856D01*
X172756D01*
Y315872D01*
X170724D01*
Y314856D01*
X169708D01*
Y312824D01*
X170724D01*
X133724Y345824D02*
Y344808D01*
X135756D01*
Y345824D01*
X136772D01*
Y347856D01*
X135756D01*
Y348872D01*
X133724D01*
Y347856D01*
X132708D01*
Y345824D01*
X133724D01*
X202714Y343414D02*
Y342398D01*
X204746D01*
Y343414D01*
X205762D01*
Y345446D01*
X204746D01*
Y346462D01*
X202714D01*
Y345446D01*
X201698D01*
Y343414D01*
X202714D01*
X176724Y404824D02*
Y403808D01*
X178756D01*
Y404824D01*
X179772D01*
Y406856D01*
X178756D01*
Y407872D01*
X176724D01*
Y406856D01*
X175708D01*
Y404824D01*
X176724D01*
X207724Y434824D02*
Y433808D01*
X209756D01*
Y434824D01*
X210772D01*
Y436856D01*
X209756D01*
Y437872D01*
X207724D01*
Y436856D01*
X206708D01*
Y434824D01*
X207724D01*
X175724Y468824D02*
Y467808D01*
X177756D01*
Y468824D01*
X178772D01*
Y470856D01*
X177756D01*
Y471872D01*
X175724D01*
Y470856D01*
X174708D01*
Y468824D01*
X175724D01*
X152724Y405824D02*
Y404808D01*
X154756D01*
Y405824D01*
X155772D01*
Y407856D01*
X154756D01*
Y408872D01*
X152724D01*
Y407856D01*
X151708D01*
Y405824D01*
X152724D01*
X265724Y447824D02*
Y446808D01*
X267756D01*
Y447824D01*
X268772D01*
Y449856D01*
X267756D01*
Y450872D01*
X265724D01*
Y449856D01*
X264708D01*
Y447824D01*
X265724D01*
X285724D02*
Y446808D01*
X287756D01*
Y447824D01*
X288772D01*
Y449856D01*
X287756D01*
Y450872D01*
X285724D01*
Y449856D01*
X284708D01*
Y447824D01*
X285724D01*
X320724Y371824D02*
Y370808D01*
X322756D01*
Y371824D01*
X323772D01*
Y373856D01*
X322756D01*
Y374872D01*
X320724D01*
Y373856D01*
X319708D01*
Y371824D01*
X320724D01*
X205734Y406734D02*
Y405718D01*
X207766D01*
Y406734D01*
X208782D01*
Y408766D01*
X207766D01*
Y409782D01*
X205734D01*
Y408766D01*
X204718D01*
Y406734D01*
X205734D01*
X276708Y292808D02*
X277724Y294840D01*
X276708Y296872D01*
X278740Y295856D01*
X280772Y296872D01*
X279756Y294840D01*
X280772Y292808D01*
X278740Y293824D01*
X276708Y292808D01*
X397708Y98808D02*
X398724Y100840D01*
X397708Y102872D01*
X399740Y101856D01*
X401772Y102872D01*
X400756Y100840D01*
X401772Y98808D01*
X399740Y99824D01*
X397708Y98808D01*
X219708Y121808D02*
X220724Y123840D01*
X219708Y125872D01*
X221740Y124856D01*
X223772Y125872D01*
X222756Y123840D01*
X223772Y121808D01*
X221740Y122824D01*
X219708Y121808D01*
X282708Y205808D02*
X283724Y207840D01*
X282708Y209872D01*
X284740Y208856D01*
X286772Y209872D01*
X285756Y207840D01*
X286772Y205808D01*
X284740Y206824D01*
X282708Y205808D01*
X121708Y241808D02*
X122724Y243840D01*
X121708Y245872D01*
X123740Y244856D01*
X125772Y245872D01*
X124756Y243840D01*
X125772Y241808D01*
X123740Y242824D01*
X121708Y241808D01*
X209708Y528808D02*
X210724Y530840D01*
X209708Y532872D01*
X211740Y531856D01*
X213772Y532872D01*
X212756Y530840D01*
X213772Y528808D01*
X211740Y529824D01*
X209708Y528808D01*
X228708Y241808D02*
X229724Y243840D01*
X228708Y245872D01*
X230740Y244856D01*
X232772Y245872D01*
X231756Y243840D01*
X232772Y241808D01*
X230740Y242824D01*
X228708Y241808D01*
X186708Y267808D02*
X187724Y269840D01*
X186708Y271872D01*
X188740Y270856D01*
X190772Y271872D01*
X189756Y269840D01*
X190772Y267808D01*
X188740Y268824D01*
X186708Y267808D01*
X324708Y319808D02*
X325724Y321840D01*
X324708Y323872D01*
X326740Y322856D01*
X328772Y323872D01*
X327756Y321840D01*
X328772Y319808D01*
X326740Y320824D01*
X324708Y319808D01*
X105708Y299808D02*
X106724Y301840D01*
X105708Y303872D01*
X107740Y302856D01*
X109772Y303872D01*
X108756Y301840D01*
X109772Y299808D01*
X107740Y300824D01*
X105708Y299808D01*
X139708Y432808D02*
X140724Y434840D01*
X139708Y436872D01*
X141740Y435856D01*
X143772Y436872D01*
X142756Y434840D01*
X143772Y432808D01*
X141740Y433824D01*
X139708Y432808D01*
X136968Y487968D02*
X137984Y490000D01*
X136968Y492032D01*
X139000Y491016D01*
X141032Y492032D01*
X140016Y490000D01*
X141032Y487968D01*
X139000Y488984D01*
X136968Y487968D01*
D84*
X1142032Y50000D02*
G03*
X1142032Y50000I-2032J0D01*
G01*
Y580000D02*
G03*
X1142032Y580000I-2032J0D01*
G01*
X52032Y580000D02*
G03*
X52032Y580000I-2032J0D01*
G01*
Y50000D02*
G03*
X52032Y50000I-2032J0D01*
G01*
M02*
