G04*
G04 #@! TF.GenerationSoftware,Altium Limited,Altium Designer,20.2.3 (150)*
G04*
G04 Layer_Color=16711935*
%FSLAX44Y44*%
%MOMM*%
G71*
G04*
G04 #@! TF.SameCoordinates,5AD93C74-63FB-45D8-B8F2-FB33F07F8B26*
G04*
G04*
G04 #@! TF.FilePolarity,Negative*
G04*
G01*
G75*
%ADD55C,0.9000*%
%ADD56C,3.1000*%
%ADD57C,1.1000*%
%ADD58C,0.8620*%
%ADD59C,0.8112*%
%ADD60C,0.3000*%
D55*
X963260Y51840D02*
D03*
X1007260D02*
D03*
D56*
X52000Y50000D02*
D03*
Y580000D02*
D03*
X1142000Y580000D02*
D03*
Y50000D02*
D03*
D57*
X1097260Y469840D02*
D03*
Y520640D02*
D03*
Y495240D02*
D03*
Y419840D02*
D03*
Y445240D02*
D03*
Y369840D02*
D03*
Y395240D02*
D03*
Y345240D02*
D03*
X836260Y468840D02*
D03*
Y519640D02*
D03*
Y494240D02*
D03*
Y418840D02*
D03*
Y444240D02*
D03*
Y368840D02*
D03*
Y394240D02*
D03*
Y344240D02*
D03*
D58*
X504000Y595000D02*
D03*
X663000D02*
D03*
X662000Y40000D02*
D03*
X528000Y39000D02*
D03*
X186000D02*
D03*
X320000Y40000D02*
D03*
X321000Y595000D02*
D03*
X162000D02*
D03*
D59*
X997000Y177000D02*
D03*
X1008260Y218840D02*
D03*
X1053000Y510000D02*
D03*
X1057000Y365250D02*
D03*
X907260Y50840D02*
D03*
X1062260Y50340D02*
D03*
X917260Y320840D02*
D03*
X913260Y294840D02*
D03*
X792260Y100840D02*
D03*
X970260Y123840D02*
D03*
X907260Y207840D02*
D03*
X1068260Y243840D02*
D03*
X980260Y530840D02*
D03*
X961260Y243840D02*
D03*
X1003260Y269840D02*
D03*
X865260Y321840D02*
D03*
X1084260Y301840D02*
D03*
X1050260Y434840D02*
D03*
X1053000Y490000D02*
D03*
D60*
X934510Y381090D02*
D03*
Y370090D02*
D03*
Y359090D02*
D03*
X945510Y381090D02*
D03*
Y370090D02*
D03*
Y359090D02*
D03*
X956510Y381090D02*
D03*
Y370090D02*
D03*
Y359090D02*
D03*
X1001260Y497840D02*
D03*
X1033270Y355430D02*
D03*
X1013270D02*
D03*
X860260Y223840D02*
D03*
X847260Y261840D02*
D03*
X877260Y339840D02*
D03*
X1020260Y291840D02*
D03*
Y313840D02*
D03*
X1057260Y346840D02*
D03*
X988270Y344430D02*
D03*
X1014260Y405840D02*
D03*
X983260Y435840D02*
D03*
X1015260Y469840D02*
D03*
X1038260Y406840D02*
D03*
X925260Y448840D02*
D03*
X905260D02*
D03*
X870260Y372840D02*
D03*
X985250Y407750D02*
D03*
M02*
