G04*
G04 #@! TF.GenerationSoftware,Altium Limited,Altium Designer,20.2.3 (150)*
G04*
G04 Layer_Color=32768*
%FSLAX44Y44*%
%MOMM*%
G71*
G04*
G04 #@! TF.SameCoordinates,5AD93C74-63FB-45D8-B8F2-FB33F07F8B26*
G04*
G04*
G04 #@! TF.FilePolarity,Positive*
G04*
G01*
G75*
%ADD81C,0.1000*%
%ADD82C,0.0500*%
D81*
X945760Y156090D02*
X945760Y195590D01*
X980510Y156090D02*
X945760Y156090D01*
X980510Y195590D02*
X945760Y195590D01*
X980510Y156090D02*
Y195590D01*
X963260Y169340D02*
X963260Y184340D01*
X970760Y176840D02*
X955760Y176840D01*
X1026960Y444340D02*
Y447340D01*
X1028460Y445840D02*
X1025460D01*
X1026260Y422340D02*
Y425340D01*
X1027760Y423840D02*
X1024760D01*
X1088260Y146840D02*
Y156840D01*
X1093260Y151840D02*
X1083260D01*
X952010Y487590D02*
Y497590D01*
X957010Y492590D02*
X947010D01*
X1001500Y287000D02*
X998500D01*
X1000000Y285500D02*
Y288500D01*
X951000Y285500D02*
Y288500D01*
X952500Y287000D02*
X949500D01*
X950510Y370090D02*
X940510D01*
X945510Y365090D02*
Y375090D01*
D82*
X1034460Y441840D02*
X1019460D01*
X1034460Y449840D02*
X1019460D01*
Y441840D02*
Y449840D01*
X1034460Y441840D02*
Y449840D01*
X1033760Y427840D02*
X1018760D01*
X1033760Y419840D02*
X1018760D01*
X1033760D02*
Y427840D01*
X1018760Y419840D02*
Y427840D01*
X1106260Y173090D02*
X1070260D01*
X1106260Y130590D02*
X1070260D01*
Y173090D01*
X1106260Y130590D02*
Y173090D01*
X989010Y465090D02*
X915010D01*
X989010Y520090D02*
X915010D01*
Y465090D02*
Y520090D01*
X989010Y465090D02*
Y520090D01*
X992500Y283000D02*
Y291000D01*
X1007500Y283000D02*
Y291000D01*
Y283000D02*
X992500D01*
X1007500Y291000D02*
X992500D01*
X955000Y294500D02*
X947000D01*
X955000Y279500D02*
X947000D01*
Y294500D01*
X955000Y279500D02*
Y294500D01*
X914760Y339340D02*
Y400840D01*
X976260Y339340D02*
Y400840D01*
X914760D01*
X976260Y339340D02*
X914760D01*
M02*
