G04*
G04 #@! TF.GenerationSoftware,Altium Limited,Altium Designer,20.2.3 (150)*
G04*
G04 Layer_Physical_Order=2*
G04 Layer_Color=32768*
%FSLAX44Y44*%
%MOMM*%
G71*
G04*
G04 #@! TF.SameCoordinates,88EA2407-11FA-4F87-BFA0-285E861C9762*
G04*
G04*
G04 #@! TF.FilePolarity,Negative*
G04*
G01*
G75*
%ADD70C,1.0160*%
%ADD71C,1.9160*%
%ADD72C,4.0160*%
G04:AMPARAMS|DCode=73|XSize=2.216mm|YSize=2.216mm|CornerRadius=0mm|HoleSize=0mm|Usage=FLASHONLY|Rotation=0.000|XOffset=0mm|YOffset=0mm|HoleType=Round|Shape=Relief|Width=0.1mm|Gap=0.1mm|Entries=4|*
%AMTHD73*
7,0,0,2.2160,2.0160,0.1000,45*
%
%ADD73THD73*%
%ADD74C,2.0160*%
%ADD75C,1.7780*%
%ADD76C,1.7272*%
G04:AMPARAMS|DCode=77|XSize=1.9272mm|YSize=1.9272mm|CornerRadius=0mm|HoleSize=0mm|Usage=FLASHONLY|Rotation=0.000|XOffset=0mm|YOffset=0mm|HoleType=Round|Shape=Relief|Width=0.1mm|Gap=0.1mm|Entries=4|*
%AMTHD77*
7,0,0,1.9272,1.7272,0.1000,45*
%
%ADD77THD77*%
%ADD78C,1.2160*%
G04:AMPARAMS|DCode=79|XSize=1.416mm|YSize=1.416mm|CornerRadius=0mm|HoleSize=0mm|Usage=FLASHONLY|Rotation=0.000|XOffset=0mm|YOffset=0mm|HoleType=Round|Shape=Relief|Width=0.1mm|Gap=0.1mm|Entries=4|*
%AMTHD79*
7,0,0,1.4160,1.2160,0.1000,45*
%
%ADD79THD79*%
D70*
X1192000Y625000D02*
X-0Y625000D01*
X-0Y0D02*
X-0Y625000D01*
X1192000Y-0D02*
X-0Y0D01*
X1192000Y-0D02*
X1192000Y625000D01*
D71*
X963260Y51840D02*
D03*
X1007260D02*
D03*
D72*
X52000Y50000D02*
D03*
Y580000D02*
D03*
X1142000Y580000D02*
D03*
Y50000D02*
D03*
D73*
X1097260Y469840D02*
D03*
D74*
Y520640D02*
D03*
Y495240D02*
D03*
Y419840D02*
D03*
Y445240D02*
D03*
Y369840D02*
D03*
Y395240D02*
D03*
Y345240D02*
D03*
X836260Y468840D02*
D03*
Y519640D02*
D03*
Y494240D02*
D03*
Y418840D02*
D03*
Y444240D02*
D03*
Y368840D02*
D03*
Y394240D02*
D03*
Y344240D02*
D03*
D75*
X504000Y595000D02*
D03*
X663000D02*
D03*
X662000Y40000D02*
D03*
X528000Y39000D02*
D03*
X186000D02*
D03*
X320000Y40000D02*
D03*
X321000Y595000D02*
D03*
X162000D02*
D03*
D76*
X997000Y177000D02*
D03*
X907260Y50840D02*
D03*
X1062260Y50340D02*
D03*
X792260Y100840D02*
D03*
X970260Y123840D02*
D03*
X907260Y207840D02*
D03*
X1068260Y243840D02*
D03*
X980260Y530840D02*
D03*
X961260Y243840D02*
D03*
X1003260Y269840D02*
D03*
X865260Y321840D02*
D03*
X1084260Y301840D02*
D03*
X1050260Y434840D02*
D03*
X1053000Y490000D02*
D03*
D77*
X1008260Y218840D02*
D03*
X1053000Y510000D02*
D03*
X1057000Y365250D02*
D03*
X917260Y320840D02*
D03*
X913260Y294840D02*
D03*
X922260Y534840D02*
D03*
D78*
X934510Y381090D02*
D03*
Y370090D02*
D03*
Y359090D02*
D03*
X945510Y381090D02*
D03*
Y370090D02*
D03*
Y359090D02*
D03*
X956510Y381090D02*
D03*
Y370090D02*
D03*
Y359090D02*
D03*
X1001260Y497840D02*
D03*
X1033270Y355430D02*
D03*
X1013270D02*
D03*
X860260Y223840D02*
D03*
X847260Y261840D02*
D03*
X877260Y339840D02*
D03*
X1020260Y313840D02*
D03*
X988270Y344430D02*
D03*
X1014260Y405840D02*
D03*
X983260Y435840D02*
D03*
X1015260Y469840D02*
D03*
X1038260Y406840D02*
D03*
X925260Y448840D02*
D03*
X905260D02*
D03*
X870260Y372840D02*
D03*
X985250Y407750D02*
D03*
D79*
X1020260Y291840D02*
D03*
X1057260Y346840D02*
D03*
M02*
